<svg xmlns="http://www.w3.org/2000/svg" viewBox="0 0 64 80" width="64" height="80">
  <!-- Terracotta pot -->
  <rect x="16" y="44" width="32" height="28" fill="#B87333" stroke="#8B5A2B" stroke-width="2"/>
  <rect x="20" y="48" width="24" height="20" fill="#C48444"/>
  <rect x="14" y="40" width="36" height="8" fill="#A0662A" stroke="#8B5A2B" stroke-width="1"/>
  <!-- Soil -->
  <rect x="20" y="38" width="24" height="6" fill="#5C4033"/>
  <!-- Stems -->
  <rect x="28" y="24" width="4" height="16" fill="#4A7C4A"/>
  <rect x="24" y="28" width="4" height="14" fill="#5A8C5A"/>
  <rect x="32" y="26" width="4" height="16" fill="#4A7C4A"/>
  <rect x="36" y="30" width="4" height="12" fill="#5A8C5A"/>
  <!-- Leaves - left -->
  <rect x="18" y="22" width="8" height="6" fill="#5BA35B"/>
  <rect x="16" y="26" width="10" height="6" fill="#4A8C4A"/>
  <rect x="20" y="30" width="8" height="6" fill="#6BB36B"/>
  <!-- Leaves - right -->
  <rect x="38" y="20" width="8" height="6" fill="#5BA35B"/>
  <rect x="38" y="26" width="10" height="6" fill="#4A8C4A"/>
  <rect x="36" y="30" width="8" height="6" fill="#6BB36B"/>
  <!-- Center leaves -->
  <rect x="28" y="18" width="8" height="8" fill="#6BB36B"/>
  <rect x="26" y="22" width="12" height="6" fill="#5BA35B"/>
</svg>
